<svg width="51" height="50" viewBox="0 0 51 50" fill="none" xmlns="http://www.w3.org/2000/svg">
<path d="M26.0851 0.226562C14.7505 0.226562 4.96125 7.90965 2.28806 18.9077C2.23197 19.1508 2.37529 19.3876 2.61831 19.4499C2.86133 19.5122 3.09811 19.3626 3.16043 19.1196C5.74015 8.52654 15.168 1.12386 26.0851 1.12386C39.0211 1.12386 49.5518 11.5861 49.6702 24.4909H43.7256C43.6509 18.4965 40.4979 13.2311 35.7808 10.1965L38.3668 6.2833L36.46 5.18038L34.3975 9.39268C33.5376 8.94403 32.6341 8.56393 31.6994 8.27106L33.1887 3.82197L31.0638 3.2487L30.1603 7.8598C29.2194 7.65417 28.2535 7.52332 27.2628 7.4797L27.5494 2.78136H25.3436L25.6676 7.4797C24.6768 7.52332 23.711 7.65417 22.7763 7.8598L21.8354 3.23624L19.7105 3.80951L21.2434 8.27729C20.3087 8.57639 19.4114 8.9565 18.5515 9.39891L16.4391 5.16169L14.5324 6.26461L17.1807 10.1965C16.3581 10.7262 15.5855 11.3119 14.8689 11.9662L11.7221 8.40815L10.1643 9.96595L13.7473 13.0878C13.093 13.8044 12.501 14.5771 11.9714 15.3996L8.00208 12.77L6.89915 14.6768L11.1738 16.7704C10.7251 17.6303 10.3512 18.5276 10.0521 19.4561L5.54075 17.9481L4.96748 20.073L9.63466 20.989C9.38541 22.1231 9.24832 23.2945 9.22963 24.4972H4.99863C4.84909 23.3693 3.89571 22.4969 2.73047 22.4969C1.4593 22.4969 0.431152 23.5251 0.431152 24.7962C0.431152 26.0674 1.4593 27.0956 2.73047 27.0956C4.00164 27.0956 4.93632 26.1422 5.01733 24.9396H9.22963C9.24209 26.111 9.37295 27.2513 9.60973 28.348L4.94878 29.2952L5.51583 31.42L10.0148 29.8809C10.3076 30.8156 10.6815 31.7129 11.1239 32.5728L6.86177 34.6977L7.96469 36.6044L11.9091 33.9499C12.4325 34.7724 13.0182 35.5513 13.6725 36.2679L10.1145 39.4209L11.6723 40.9787L14.7941 37.3958C15.5107 38.0563 16.2771 38.6482 17.0997 39.1841L14.4825 43.1409L16.3893 44.2439L18.4705 39.988C19.3242 40.4366 20.2277 40.8229 21.1562 41.122L19.6545 45.6023L21.7855 46.1755L22.6891 41.5458C23.63 41.7576 24.5896 41.8947 25.5803 41.9446L25.2937 46.6491H27.4996L27.1755 41.9508C28.1663 41.9134 29.1321 41.7888 30.073 41.5894L31.0077 46.1942L33.1326 45.621L31.6122 41.1843C32.5531 40.8915 33.4504 40.5176 34.3165 40.0752L36.4102 44.275L38.3169 43.1721L35.6998 39.2838C36.5286 38.7604 37.3075 38.1684 38.0303 37.5142L41.1335 41.0223L42.6913 39.4645L39.1644 36.3925C39.8249 35.676 40.4231 34.9033 40.9528 34.0808L44.8535 36.6605L45.9564 34.7537L41.7628 32.7037C42.2115 31.8438 42.5978 30.9402 42.8969 30.0055L47.3211 31.4823L47.8943 29.3513L43.3206 28.454C43.5761 27.3199 43.7132 26.136 43.7319 24.9271H49.6765C49.5581 37.832 39.0211 48.2942 26.0913 48.2942C15.1929 48.2942 5.77131 40.9102 3.17912 30.342C3.12304 30.099 2.88002 29.9557 2.637 30.0118C2.39399 30.0679 2.25067 30.3109 2.30675 30.5539C4.99863 41.5271 14.7754 49.1915 26.0913 49.1915C39.5943 49.1915 50.58 38.2058 50.58 24.7028C50.58 11.1997 39.5881 0.226562 26.0851 0.226562ZM42.4358 28.292L42.0494 29.7251C41.7628 30.6287 41.3952 31.4886 40.959 32.3173L40.2736 33.5013C39.7065 34.3923 39.0522 35.2273 38.3232 35.9937L37.7437 36.5732C34.8088 39.3648 30.8395 41.0784 26.4714 41.0784C17.5109 41.0784 10.2329 33.8751 10.1145 24.9396H11.3171H11.4978H11.934C11.934 24.8897 11.9215 24.8461 11.9215 24.7962C11.9215 24.6903 11.9402 24.5906 11.9651 24.4909H10.1145C10.2329 15.5554 17.5109 8.35207 26.4714 8.35207C35.4319 8.35207 42.71 15.5554 42.8283 24.4909H41.0275C41.0525 24.5906 41.0711 24.6903 41.0711 24.7962C41.0711 24.8461 41.0649 24.8959 41.0587 24.9396H42.8283C42.8159 26.0923 42.6788 27.2077 42.4358 28.292Z" fill="white"/>
<path d="M17.7284 36.9414C17.6536 37.0474 17.6848 37.1845 17.7845 37.253C17.8219 37.2842 17.8655 37.2904 17.9091 37.2904C17.9777 37.2904 18.0462 37.2592 18.0898 37.1969C18.1646 37.091 18.1334 36.9539 18.0337 36.8854C17.934 36.8168 17.7907 36.8417 17.7222 36.9414H17.7284Z" fill="white"/>
<path d="M21.1932 38.5364C21.081 38.4928 20.9502 38.5551 20.9066 38.6735C20.863 38.7857 20.919 38.9165 21.0374 38.9601C21.0624 38.9664 21.0935 38.9726 21.1184 38.9726C21.2057 38.9726 21.2929 38.9165 21.3303 38.8293C21.3739 38.7109 21.3116 38.58 21.1932 38.5364Z" fill="white"/>
<path d="M15.0554 34.5111C14.9619 34.5921 14.9495 34.7354 15.0367 34.8226C15.0803 34.8725 15.1426 34.8974 15.2049 34.8974C15.261 34.8974 15.3109 34.8787 15.3545 34.8413C15.448 34.7603 15.4604 34.617 15.3794 34.5298C15.2922 34.4363 15.1551 34.4238 15.0616 34.5111H15.0554Z" fill="white"/>
<path d="M11.8029 28.1116C11.6845 28.1365 11.6035 28.2611 11.6346 28.3795C11.6596 28.4855 11.753 28.5478 11.8527 28.5478C11.8714 28.5478 11.8901 28.5478 11.9088 28.5478C12.0272 28.5166 12.102 28.3982 12.0708 28.2736C12.0459 28.1552 11.9213 28.0804 11.8029 28.1116Z" fill="white"/>
<path d="M12.0521 21.2011C12.0771 21.0827 12.0085 20.9581 11.8839 20.927C11.7655 20.902 11.6409 20.9706 11.6159 21.0952C11.5848 21.2136 11.6596 21.3382 11.7842 21.3631C11.8029 21.3631 11.8153 21.3694 11.834 21.3694C11.94 21.3694 12.0272 21.2946 12.0521 21.2011Z" fill="white"/>
<path d="M24.6581 39.384C24.5335 39.3715 24.4276 39.4588 24.4089 39.5834C24.3964 39.7018 24.4837 39.814 24.6083 39.8326H24.6332C24.7454 39.8326 24.8389 39.7454 24.8575 39.6332C24.87 39.5086 24.7828 39.4027 24.6581 39.384Z" fill="white"/>
<path d="M13.0367 31.5078C12.9246 31.5639 12.8872 31.701 12.9432 31.8131C12.9806 31.8879 13.0616 31.9315 13.1426 31.9315C13.18 31.9315 13.2174 31.9253 13.2486 31.9066C13.3607 31.8505 13.3981 31.7134 13.342 31.6075C13.286 31.4954 13.1489 31.458 13.0429 31.514L13.0367 31.5078Z" fill="white"/>
<path d="M37.4879 34.505C37.4069 34.5984 37.4132 34.7355 37.5129 34.8228C37.5502 34.8602 37.6063 34.8788 37.6624 34.8788C37.7185 34.8788 37.7808 34.8539 37.8307 34.8041C37.9117 34.7168 37.8992 34.5735 37.812 34.4925C37.7185 34.4053 37.5814 34.4177 37.4942 34.5112L37.4879 34.505Z" fill="white"/>
<path d="M39.8184 31.4828C39.7063 31.4267 39.5692 31.4641 39.5131 31.5763C39.457 31.6822 39.5006 31.8255 39.6066 31.8754C39.6439 31.8941 39.6751 31.9003 39.7125 31.9003C39.7935 31.9003 39.8745 31.8567 39.9119 31.7819C39.968 31.676 39.9243 31.5389 39.8184 31.4828Z" fill="white"/>
<path d="M40.7781 28.2427C40.7469 28.3611 40.8217 28.4795 40.9463 28.5106C40.965 28.5106 40.9837 28.5106 41.0024 28.5106C41.1021 28.5106 41.1893 28.4421 41.2205 28.3424C41.2516 28.224 41.1769 28.0994 41.0522 28.0744C40.9338 28.0433 40.8154 28.1181 40.7843 28.2427H40.7781Z" fill="white"/>
<path d="M31.6803 38.5294C31.5619 38.573 31.5058 38.7039 31.5494 38.816C31.5806 38.9033 31.6678 38.9656 31.755 38.9656C31.78 38.9656 31.8111 38.9656 31.836 38.9469C31.9544 38.9095 32.0105 38.7786 31.9669 38.6602C31.9233 38.5418 31.7924 38.4858 31.6803 38.5294Z" fill="white"/>
<path d="M28.2157 39.3771C28.0911 39.3958 28.0039 39.5079 28.0163 39.6263C28.0288 39.7385 28.1285 39.8257 28.2406 39.8257H28.2656C28.384 39.807 28.4774 39.6949 28.4587 39.5765C28.4463 39.4581 28.3341 39.3646 28.2095 39.3771H28.2157Z" fill="white"/>
<path d="M34.8272 36.873C34.7213 36.9416 34.6964 37.0787 34.7711 37.1846C34.8147 37.2469 34.8833 37.2843 34.9518 37.2843C34.9955 37.2843 35.0391 37.2718 35.0827 37.2469C35.1824 37.1721 35.2073 37.035 35.1388 36.9353C35.064 36.8294 34.9269 36.8107 34.8272 36.8793V36.873Z" fill="white"/>
<path d="M21.0564 10.9067C21.0564 10.9067 21.1125 10.9067 21.1374 10.8942C21.2496 10.8506 21.3057 10.7197 21.2621 10.6013C21.2247 10.4892 21.0938 10.4331 20.9754 10.4767C20.857 10.5141 20.8009 10.645 20.8446 10.7634C20.882 10.8506 20.963 10.9067 21.0564 10.9067Z" fill="white"/>
<path d="M34.9022 12.5464C34.9707 12.5464 35.0455 12.509 35.0829 12.4467C35.1576 12.347 35.1265 12.2037 35.0268 12.1352C34.9271 12.0604 34.79 12.0915 34.7152 12.1912C34.6405 12.2972 34.6716 12.428 34.7713 12.5028C34.8087 12.5277 34.8523 12.5464 34.8959 12.5464H34.9022Z" fill="white"/>
<path d="M31.6182 10.8642C31.6182 10.8642 31.6743 10.8767 31.693 10.8767C31.7865 10.8767 31.8737 10.8206 31.9049 10.7271C31.9485 10.615 31.8924 10.4841 31.774 10.4405C31.6556 10.3969 31.5248 10.453 31.4874 10.5714C31.4438 10.6898 31.4999 10.8206 31.6182 10.8642Z" fill="white"/>
<path d="M37.6186 14.939C37.6747 14.939 37.7246 14.9203 37.7682 14.883C37.8617 14.7957 37.8679 14.6586 37.7869 14.5652C37.7059 14.4779 37.5626 14.4655 37.4753 14.5465C37.3819 14.6337 37.3694 14.7708 37.4566 14.8643C37.494 14.9141 37.5626 14.939 37.6249 14.939H37.6186Z" fill="white"/>
<path d="M40.9772 21.2822C40.9772 21.2822 41.0146 21.2822 41.0333 21.2759C41.1517 21.251 41.2265 21.1264 41.2016 21.008C41.1704 20.8896 41.052 20.8148 40.9274 20.8398C40.809 20.8709 40.7342 20.9893 40.7654 21.1139C40.7903 21.2199 40.8838 21.2822 40.9835 21.2822H40.9772Z" fill="white"/>
<path d="M13.0114 17.9614C13.0426 17.9801 13.08 17.9864 13.1174 17.9864C13.1984 17.9864 13.2731 17.9428 13.3168 17.868C13.3728 17.7558 13.3355 17.6187 13.2233 17.5627C13.1174 17.5066 12.9741 17.5502 12.9242 17.6561C12.8681 17.7683 12.9055 17.9054 13.0177 17.9614H13.0114Z" fill="white"/>
<path d="M39.6877 17.9052C39.7251 17.9052 39.7625 17.8989 39.7936 17.8802C39.9058 17.8242 39.9432 17.6871 39.8871 17.5811C39.831 17.469 39.6939 17.4316 39.588 17.4877C39.4758 17.5438 39.4384 17.6808 39.4945 17.793C39.5319 17.8678 39.6129 17.9114 39.6939 17.9114L39.6877 17.9052Z" fill="white"/>
<path d="M17.8594 12.602C17.903 12.602 17.9466 12.5896 17.984 12.5584C18.09 12.4899 18.1149 12.3466 18.0401 12.2469C17.9653 12.1409 17.8282 12.1222 17.7285 12.1908C17.6288 12.2593 17.6039 12.4026 17.6725 12.5023C17.7099 12.5647 17.7846 12.602 17.8532 12.602H17.8594Z" fill="white"/>
<path d="M28.1537 10.0222C28.1537 10.0222 28.1724 10.0222 28.1786 10.0222C28.2908 10.0222 28.3842 9.93494 28.3967 9.82277C28.4154 9.69815 28.3281 9.58599 28.1973 9.57353C28.0789 9.56106 27.9667 9.64207 27.948 9.77292C27.9356 9.89132 28.0166 10.0035 28.1474 10.0222H28.1537Z" fill="white"/>
<path d="M15.1614 15.0017C15.2237 15.0017 15.286 14.9768 15.3297 14.9269C15.4107 14.8335 15.4044 14.6902 15.311 14.6091C15.2175 14.5281 15.0742 14.5344 14.9932 14.6278C14.9122 14.7213 14.9184 14.8646 15.0119 14.9456C15.0555 14.983 15.1116 15.0017 15.1614 15.0017Z" fill="white"/>
<path d="M24.5647 10.0347H24.5897C24.7081 10.0222 24.8015 9.91003 24.7828 9.7854C24.7704 9.66701 24.6582 9.57354 24.5336 9.59223C24.409 9.6047 24.3217 9.71686 24.3342 9.84148C24.3467 9.95988 24.4464 10.0409 24.5585 10.0409L24.5647 10.0347Z" fill="white"/>
</svg>
